<svg width="314" height="211" viewBox="0 0 314 211" fill="none" xmlns="http://www.w3.org/2000/svg">
    <g clip-path="url(#clip0_1_31)">
        <path 
            d="M157.057 105.1C132.268 105.1 112.102 125.267 112.102 150.055C112.102 174.843 132.268 195.01 157.057 195.01C181.846 195.01 202.012 174.843 202.012 150.055C202.012 125.267 181.845 105.1 157.057 105.1ZM157.057 178.36C141.45 178.36 128.752 165.663 128.752 150.055C128.752 134.447 141.449 121.75 157.057 121.75C172.665 121.75 185.362 134.447 185.362 150.055C185.362 165.663 172.663 178.36 157.057 178.36Z"
            fill="#E3CC78"
        />
        <path
            d="M304.365 183.342L278.907 160.359V139.751L304.364 116.77C306.978 114.409 307.825 110.658 306.476 107.404L292.871 74.558C291.523 71.305 288.283 69.253 284.756 69.43L250.504 71.179L235.933 56.608L237.682 22.357C237.862 18.839 235.808 15.588 232.554 14.241L199.707 0.634996C196.454 -0.715004 192.702 0.133996 190.342 2.746L167.358 28.204H146.752L123.77 2.746C121.409 0.132996 117.658 -0.712004 114.405 0.634996L81.559 14.24C78.304 15.588 76.251 18.839 76.431 22.356L78.181 56.607L63.609 71.178L29.357 69.429C25.851 69.241 22.589 71.303 21.242 74.557L7.63502 107.403C6.28702 110.658 7.13302 114.408 9.74702 116.769L35.204 139.75V160.358L9.74902 183.341C7.13502 185.702 6.28802 189.453 7.63702 192.707L21.242 225.553C22.59 228.808 25.845 230.874 29.357 230.681L63.609 228.932L78.181 243.503L76.431 277.754C76.251 281.272 78.305 284.523 81.559 285.87L114.405 299.476C117.66 300.828 121.41 299.978 123.77 297.365L146.754 271.907H167.36L190.344 297.365C191.957 299.15 194.217 300.111 196.526 300.111C197.597 300.111 198.678 299.903 199.709 299.477L232.555 285.871C235.81 284.523 237.863 281.272 237.683 277.755L235.934 243.504L250.505 228.933L284.757 230.682C288.263 230.86 291.525 228.808 292.872 225.554L306.477 192.708C307.825 189.453 306.979 185.703 304.365 183.342ZM279.737 213.754L247.658 212.115C245.307 211.988 243.012 212.879 241.347 214.543L221.543 234.347C219.877 236.013 218.996 238.305 219.115 240.658L220.753 272.737L198.763 281.846L177.238 258.003C175.66 256.256 173.414 255.257 171.059 255.257H143.053C140.698 255.257 138.452 256.255 136.874 258.003L115.349 281.846L93.359 272.737L94.998 240.658C95.118 238.305 94.235 236.012 92.569 234.347L72.766 214.543C71.101 212.878 68.811 211.993 66.455 212.115L34.376 213.754L25.267 191.764L49.109 170.239C50.857 168.659 51.855 166.415 51.855 164.06V136.052C51.855 133.697 50.857 131.451 49.109 129.873L25.267 108.348L34.376 86.358L66.455 87.997C68.809 88.121 71.101 87.234 72.766 85.569L92.569 65.766C94.235 64.1 95.118 61.808 94.998 59.453L93.359 27.374L115.349 18.265L136.874 42.107C138.452 43.854 140.698 44.853 143.053 44.853H171.059C173.414 44.853 175.66 43.855 177.238 42.107L198.763 18.265L220.753 27.374L219.115 59.453C218.995 61.806 219.876 64.098 221.543 65.766L241.347 85.569C243.013 87.234 245.306 88.133 247.658 87.997L279.737 86.358L288.846 108.348L265.003 129.873C263.255 131.453 262.257 133.697 262.257 136.052V164.06C262.257 166.415 263.255 168.661 265.003 170.239L288.846 191.764L279.737 213.754Z"
            fill="#E3CC78"
        />
        <path
            d="M157.057 71.357C113.663 71.357 78.359 106.662 78.359 150.055C78.359 193.449 113.663 228.753 157.057 228.753C200.451 228.753 235.755 193.448 235.755 150.055C235.754 106.661 200.45 71.357 157.057 71.357ZM157.057 212.103C122.843 212.103 95.009 184.269 95.009 150.055C95.009 115.841 122.843 88.007 157.057 88.007C191.271 88.007 219.105 115.841 219.105 150.055C219.105 184.269 191.269 212.103 157.057 212.103Z"
            fill="#E3CC78"
        />
    </g>
    <path
        d="M12.72 197.528C10.384 197.528 8.432 197.08 6.864 196.184C5.296 195.256 4.112 193.912 3.312 192.152C2.512 190.392 2.064 188.232 1.968 185.672L8.064 184.472C8.128 185.976 8.304 187.304 8.592 188.456C8.912 189.608 9.376 190.504 9.984 191.144C10.624 191.752 11.456 192.056 12.48 192.056C13.632 192.056 14.448 191.72 14.928 191.048C15.408 190.344 15.648 189.464 15.648 188.408C15.648 186.712 15.264 185.32 14.496 184.232C13.728 183.144 12.704 182.056 11.424 180.968L6.528 176.648C5.152 175.464 4.048 174.152 3.216 172.712C2.416 171.24 2.016 169.432 2.016 167.288C2.016 164.216 2.912 161.848 4.704 160.184C6.496 158.52 8.944 157.688 12.048 157.688C13.872 157.688 15.392 157.976 16.608 158.552C17.824 159.096 18.784 159.864 19.488 160.856C20.224 161.848 20.768 162.984 21.12 164.264C21.472 165.512 21.696 166.84 21.792 168.248L15.744 169.304C15.68 168.088 15.536 167 15.312 166.04C15.12 165.08 14.752 164.328 14.208 163.784C13.696 163.24 12.928 162.968 11.904 162.968C10.848 162.968 10.032 163.32 9.456 164.024C8.912 164.696 8.64 165.544 8.64 166.568C8.64 167.88 8.912 168.968 9.456 169.832C10 170.664 10.784 171.528 11.808 172.424L16.656 176.696C18.256 178.04 19.616 179.624 20.736 181.448C21.888 183.24 22.464 185.416 22.464 187.976C22.464 189.832 22.048 191.48 21.216 192.92C20.416 194.36 19.28 195.496 17.808 196.328C16.368 197.128 14.672 197.528 12.72 197.528ZM36.3907 197.528C33.8308 197.528 31.7988 196.984 30.2948 195.896C28.7908 194.808 27.7028 193.272 27.0308 191.288C26.3908 189.272 26.0708 186.904 26.0708 184.184V171.128C26.0708 168.344 26.3908 165.944 27.0308 163.928C27.6708 161.912 28.7908 160.376 30.3908 159.32C32.0228 158.232 34.2628 157.688 37.1108 157.688C39.7668 157.688 41.8788 158.136 43.4468 159.032C45.0148 159.928 46.1348 161.224 46.8068 162.92C47.5108 164.584 47.8628 166.616 47.8628 169.016V171.032H41.0948V168.824C41.0948 167.576 40.9988 166.504 40.8068 165.608C40.6468 164.712 40.2948 164.04 39.7508 163.592C39.2388 163.112 38.3908 162.872 37.2068 162.872C35.9588 162.872 35.0468 163.176 34.4708 163.784C33.9268 164.392 33.5748 165.192 33.4148 166.184C33.2868 167.176 33.2228 168.264 33.2228 169.448V185.72C33.2228 187.064 33.3348 188.232 33.5588 189.224C33.7828 190.216 34.1988 190.984 34.8068 191.528C35.4148 192.04 36.2788 192.296 37.3988 192.296C38.5508 192.296 39.4308 192.008 40.0388 191.432C40.6468 190.856 41.0628 190.056 41.2868 189.032C41.5428 188.008 41.6708 186.792 41.6708 185.384V181.736H37.4948V177.272H48.0548V197H43.4948L42.9668 193.16C42.4548 194.44 41.6708 195.496 40.6148 196.328C39.5908 197.128 38.1828 197.528 36.3907 197.528ZM53.2193 197V169.256H59.7473V197H53.2193ZM53.2193 164.84V159.416H59.7473V164.84H53.2193ZM77.1334 197V158.12H84.1894V174.392H92.1094V158.12H99.2134V197H92.1094V179.432H84.1894V197H77.1334ZM110.106 197.432C108.858 197.432 107.786 197.112 106.89 196.472C105.994 195.8 105.306 194.968 104.826 193.976C104.346 192.952 104.106 191.896 104.106 190.808C104.106 189.08 104.426 187.624 105.066 186.44C105.706 185.256 106.554 184.264 107.61 183.464C108.666 182.664 109.866 181.976 111.21 181.4C112.554 180.792 113.914 180.248 115.29 179.768V177.368C115.29 176.568 115.226 175.896 115.098 175.352C115.002 174.808 114.794 174.392 114.474 174.104C114.186 173.816 113.722 173.672 113.082 173.672C112.538 173.672 112.09 173.8 111.738 174.056C111.418 174.312 111.178 174.68 111.018 175.16C110.89 175.608 110.81 176.136 110.778 176.744L110.682 178.424L104.49 178.184C104.586 174.984 105.37 172.632 106.842 171.128C108.346 169.592 110.618 168.824 113.658 168.824C116.442 168.824 118.458 169.592 119.706 171.128C120.986 172.664 121.626 174.744 121.626 177.368V190.184C121.626 191.208 121.642 192.136 121.674 192.968C121.738 193.8 121.802 194.552 121.866 195.224C121.962 195.896 122.042 196.488 122.106 197H116.25C116.154 196.36 116.026 195.64 115.866 194.84C115.738 194.008 115.642 193.4 115.578 193.016C115.258 194.136 114.65 195.16 113.754 196.088C112.858 196.984 111.642 197.432 110.106 197.432ZM112.506 192.584C112.922 192.584 113.306 192.488 113.658 192.296C114.042 192.072 114.378 191.816 114.666 191.528C114.954 191.24 115.162 190.984 115.29 190.76V183.032C114.586 183.448 113.914 183.864 113.274 184.28C112.666 184.696 112.122 185.16 111.642 185.672C111.194 186.152 110.842 186.68 110.586 187.256C110.362 187.832 110.25 188.504 110.25 189.272C110.25 190.296 110.442 191.112 110.826 191.72C111.242 192.296 111.802 192.584 112.506 192.584ZM134.786 197.432C132.642 197.432 130.914 197.032 129.602 196.232C128.322 195.4 127.378 194.232 126.77 192.728C126.194 191.192 125.906 189.384 125.906 187.304V178.952C125.906 176.808 126.194 174.984 126.77 173.48C127.378 171.976 128.338 170.824 129.65 170.024C130.962 169.224 132.674 168.824 134.786 168.824C136.77 168.824 138.386 169.144 139.634 169.784C140.914 170.392 141.842 171.336 142.418 172.616C142.994 173.864 143.282 175.448 143.282 177.368V179.672H137.138V177.224C137.138 176.264 137.058 175.512 136.898 174.968C136.77 174.392 136.53 173.992 136.178 173.768C135.826 173.512 135.362 173.384 134.786 173.384C134.21 173.384 133.746 173.544 133.394 173.864C133.042 174.152 132.786 174.632 132.626 175.304C132.498 175.976 132.434 176.904 132.434 178.088V188.264C132.434 190.056 132.626 191.272 133.01 191.912C133.394 192.52 134.002 192.824 134.834 192.824C135.474 192.824 135.954 192.68 136.273 192.392C136.626 192.104 136.85 191.688 136.946 191.144C137.074 190.568 137.138 189.88 137.138 189.08V186.104H143.282V188.744C143.282 190.6 142.978 192.184 142.37 193.496C141.794 194.808 140.866 195.8 139.586 196.472C138.338 197.112 136.738 197.432 134.786 197.432ZM147.622 197V158.12H154.15V180.44L161.302 169.256H168.406L161.446 180.392L168.262 197H161.398L156.358 183.32L154.15 186.392V197H147.622ZM179.224 197.432C177.144 197.432 175.448 197.048 174.136 196.28C172.824 195.48 171.848 194.328 171.208 192.824C170.6 191.288 170.296 189.448 170.296 187.304V178.952C170.296 176.744 170.6 174.888 171.208 173.384C171.848 171.88 172.824 170.744 174.136 169.976C175.48 169.208 177.176 168.824 179.224 168.824C181.432 168.824 183.144 169.24 184.36 170.072C185.608 170.904 186.488 172.12 187 173.72C187.544 175.288 187.816 177.208 187.816 179.48V183.416H176.776V188.888C176.776 189.784 176.856 190.52 177.016 191.096C177.208 191.672 177.496 192.088 177.88 192.344C178.264 192.6 178.728 192.728 179.272 192.728C179.848 192.728 180.312 192.6 180.664 192.344C181.016 192.056 181.272 191.656 181.432 191.144C181.592 190.6 181.672 189.928 181.672 189.128V186.824H187.768V188.696C187.768 191.512 187.064 193.672 185.656 195.176C184.248 196.68 182.104 197.432 179.224 197.432ZM176.776 180.2H181.672V177.56C181.672 176.6 181.592 175.832 181.432 175.256C181.272 174.648 181.016 174.216 180.664 173.96C180.312 173.672 179.816 173.528 179.176 173.528C178.6 173.528 178.136 173.672 177.784 173.96C177.432 174.248 177.176 174.728 177.016 175.4C176.856 176.072 176.776 177.032 176.776 178.28V180.2ZM192.39 197V169.256H198.918V173.528C199.878 171.896 200.838 170.728 201.798 170.024C202.758 169.288 203.814 168.92 204.966 168.92C205.158 168.92 205.318 168.936 205.446 168.968C205.606 168.968 205.782 168.984 205.974 169.016V175.784C205.59 175.624 205.158 175.496 204.678 175.4C204.23 175.272 203.766 175.208 203.286 175.208C202.422 175.208 201.638 175.416 200.934 175.832C200.23 176.248 199.558 176.936 198.918 177.896V197H192.39ZM225.16 197V163.352H218.968V158.12H238.36V163.352H232.264V197H225.16ZM249.209 197.432C247.193 197.432 245.529 197.064 244.217 196.328C242.905 195.56 241.913 194.456 241.241 193.016C240.601 191.576 240.281 189.832 240.281 187.784V178.472C240.281 176.424 240.601 174.68 241.241 173.24C241.913 171.8 242.905 170.712 244.217 169.976C245.529 169.208 247.193 168.824 249.209 168.824C251.225 168.824 252.889 169.208 254.201 169.976C255.545 170.712 256.537 171.8 257.177 173.24C257.849 174.68 258.185 176.424 258.185 178.472V187.784C258.185 189.832 257.849 191.576 257.177 193.016C256.537 194.456 255.545 195.56 254.201 196.328C252.889 197.064 251.225 197.432 249.209 197.432ZM249.257 192.92C249.993 192.92 250.537 192.712 250.889 192.296C251.241 191.88 251.465 191.32 251.561 190.616C251.657 189.88 251.705 189.08 251.705 188.216V178.04C251.705 177.176 251.657 176.392 251.561 175.688C251.465 174.984 251.241 174.424 250.889 174.008C250.537 173.56 249.993 173.336 249.257 173.336C248.521 173.336 247.977 173.56 247.625 174.008C247.273 174.424 247.033 174.984 246.905 175.688C246.809 176.392 246.761 177.176 246.761 178.04V188.216C246.761 189.08 246.809 189.88 246.905 190.616C247.033 191.32 247.273 191.88 247.625 192.296C247.977 192.712 248.521 192.92 249.257 192.92ZM271.052 197.432C269.036 197.432 267.372 197.064 266.06 196.328C264.748 195.56 263.756 194.456 263.084 193.016C262.444 191.576 262.124 189.832 262.124 187.784V178.472C262.124 176.424 262.444 174.68 263.084 173.24C263.756 171.8 264.748 170.712 266.06 169.976C267.372 169.208 269.036 168.824 271.052 168.824C273.068 168.824 274.732 169.208 276.044 169.976C277.388 170.712 278.38 171.8 279.02 173.24C279.692 174.68 280.028 176.424 280.028 178.472V187.784C280.028 189.832 279.692 191.576 279.02 193.016C278.38 194.456 277.388 195.56 276.044 196.328C274.732 197.064 273.068 197.432 271.052 197.432ZM271.1 192.92C271.836 192.92 272.38 192.712 272.732 192.296C273.084 191.88 273.308 191.32 273.404 190.616C273.5 189.88 273.548 189.08 273.548 188.216V178.04C273.548 177.176 273.5 176.392 273.404 175.688C273.308 174.984 273.084 174.424 272.732 174.008C272.38 173.56 271.836 173.336 271.1 173.336C270.364 173.336 269.82 173.56 269.468 174.008C269.116 174.424 268.876 174.984 268.748 175.688C268.652 176.392 268.604 177.176 268.604 178.04V188.216C268.604 189.08 268.652 189.88 268.748 190.616C268.876 191.32 269.116 191.88 269.468 192.296C269.82 192.712 270.364 192.92 271.1 192.92ZM284.928 197V158.12H291.408V197H284.928ZM304.126 197.432C301.79 197.432 299.87 196.808 298.366 195.56C296.862 194.312 295.79 192.488 295.15 190.088L299.998 188.216C300.382 189.72 300.894 190.872 301.534 191.672C302.174 192.472 303.006 192.872 304.03 192.872C304.798 192.872 305.374 192.68 305.758 192.296C306.142 191.912 306.334 191.384 306.334 190.712C306.334 189.944 306.094 189.256 305.614 188.648C305.166 188.008 304.382 187.224 303.262 186.296L299.902 183.464C298.686 182.408 297.694 181.336 296.926 180.248C296.19 179.128 295.822 177.736 295.822 176.072C295.822 174.568 296.158 173.288 296.83 172.232C297.534 171.144 298.478 170.312 299.662 169.736C300.878 169.128 302.222 168.824 303.694 168.824C305.934 168.824 307.726 169.496 309.07 170.84C310.446 172.152 311.326 173.88 311.71 176.024L307.438 177.848C307.278 177.08 307.038 176.376 306.718 175.736C306.43 175.064 306.046 174.52 305.566 174.104C305.086 173.688 304.526 173.48 303.886 173.48C303.214 173.48 302.67 173.688 302.254 174.104C301.87 174.52 301.678 175.048 301.678 175.688C301.678 176.232 301.902 176.792 302.35 177.368C302.83 177.944 303.502 178.6 304.366 179.336L307.774 182.408C308.51 183.048 309.214 183.736 309.886 184.472C310.558 185.208 311.118 186.04 311.566 186.968C312.014 187.864 312.238 188.904 312.238 190.088C312.238 191.688 311.87 193.032 311.134 194.12C310.43 195.208 309.454 196.04 308.206 196.616C306.99 197.16 305.63 197.432 304.126 197.432Z"
        fill="black"
    />
    <defs>
        <clipPath id="clip0_1_31">
            <rect width="300" height="150" fill="white" transform="translate(7)"/>
        </clipPath>
    </defs>
</svg>
